<svg width="32" height="32" viewBox="0 0 32 32" fill="none" xmlns="http://www.w3.org/2000/svg">
  <rect width="32" height="32" rx="16" fill="#9333EA"/>
  <path d="M22 12.5C22 11.12 20.88 10 19.5 10H12.5C11.12 10 10 11.12 10 12.5V19.5C10 20.88 11.12 22 12.5 22H19.5C20.88 22 22 20.88 22 19.5V12.5ZM16 20C13.79 20 12 18.21 12 16C12 13.79 13.79 12 16 12C18.21 12 20 13.79 20 16C20 18.21 18.21 20 16 20ZM16 14C14.9 14 14 14.9 14 16C14 17.1 14.9 18 16 18C17.1 18 18 17.1 18 16C18 14.9 17.1 14 16 14Z" fill="white"/>
</svg>